<svg width="619" height="567" viewBox="0 0 619 567" fill="none" xmlns="http://www.w3.org/2000/svg">
<rect width="619" height="567" fill="#1E1E1E"/>
<rect width="619" height="567" fill="white"/>
<path d="M328.58 546.045C459.24 546.045 565.16 484.892 565.16 409.455C565.16 334.019 459.24 272.865 328.58 272.865C197.92 272.865 92 334.019 92 409.455C92 484.892 197.92 546.045 328.58 546.045Z" fill="#7A7A7A"/>
<path d="M145.53 450.956L106.25 428.286C104.86 427.486 104.86 426.186 106.25 425.386L322.67 300.406C323.446 300.016 324.302 299.813 325.17 299.813C326.038 299.813 326.894 300.016 327.67 300.406L366.94 323.076C368.32 323.876 368.32 325.176 366.94 325.976L150.53 450.956C149.755 451.347 148.898 451.551 148.03 451.551C147.162 451.551 146.305 451.347 145.53 450.956Z" fill="#595959"/>
<path d="M281.72 415.455L313.34 397.175C316.6 395.285 318.23 392.825 318.23 390.355C318.23 387.885 318.23 385.955 318.23 385.955L280.2 364.405C279.285 363.805 278.523 362.998 277.976 362.05C277.429 361.102 277.112 360.038 277.05 358.945V319.945L221.82 351.855V390.855C221.883 391.947 222.201 393.008 222.748 393.954C223.295 394.901 224.056 395.706 224.97 396.305L258.12 415.445C264.64 419.215 275.21 419.215 281.72 415.455Z" fill="#393939"/>
<g opacity="0.5">
<path d="M281.72 415.455L313.34 397.175C316.6 395.285 318.23 392.825 318.23 390.355C318.23 387.885 318.23 385.955 318.23 385.955L280.2 364.405C279.285 363.805 278.523 362.998 277.976 362.05C277.429 361.102 277.112 360.038 277.05 358.945V319.945L221.82 351.855V390.855C221.883 391.947 222.201 393.008 222.748 393.954C223.295 394.901 224.056 395.706 224.97 396.305L258.12 415.445C264.64 419.215 275.21 419.215 281.72 415.455Z" fill="black"/>
</g>
<path d="M235.08 397.765V402.145L224.96 396.315C224.045 395.715 223.283 394.908 222.736 393.96C222.189 393.012 221.872 391.948 221.81 390.855V351.855L232.34 345.785C232.55 348.455 232.79 351.215 233.01 353.905L225.63 358.175V388.635C225.686 389.727 226 390.79 226.546 391.737C227.092 392.684 227.854 393.489 228.77 394.085L235.08 397.765Z" fill="#393939"/>
<path opacity="0.7" d="M235.08 397.765V402.145L224.96 396.315C224.045 395.715 223.283 394.908 222.736 393.96C222.189 393.012 221.872 391.948 221.81 390.855V351.855L232.34 345.785C232.55 348.455 232.79 351.215 233.01 353.905L225.63 358.175V388.635C225.686 389.727 226 390.79 226.546 391.737C227.092 392.684 227.854 393.489 228.77 394.085L235.08 397.765Z" fill="black"/>
<path d="M225.63 388.665C225.688 389.758 226.004 390.821 226.552 391.768C227.099 392.715 227.863 393.519 228.78 394.115L258.11 411.055C264.63 414.825 275.2 414.825 281.72 411.055L313.36 392.775C319.88 389.015 319.88 382.915 313.36 379.155L284.01 362.205C283.093 361.609 282.329 360.805 281.782 359.858C281.234 358.911 280.918 357.848 280.86 356.755V326.295L225.63 358.205V388.665Z" fill="#393939"/>
<path opacity="0.3" d="M225.63 388.665C225.688 389.758 226.004 390.821 226.552 391.768C227.099 392.715 227.863 393.519 228.78 394.115L258.11 411.055C264.63 414.825 275.2 414.825 281.72 411.055L313.36 392.775C319.88 389.015 319.88 382.915 313.36 379.155L284.01 362.205C283.093 361.609 282.329 360.805 281.782 359.858C281.234 358.911 280.918 357.848 280.86 356.755V326.295L225.63 358.205V388.665Z" fill="black"/>
<path opacity="0.7" d="M290.42 365.915L284.01 362.215C283.093 361.619 282.329 360.815 281.782 359.868C281.234 358.921 280.918 357.858 280.86 356.765V326.295L225.63 358.205V388.665C225.688 389.758 226.004 390.821 226.552 391.768C227.099 392.715 227.863 393.519 228.78 394.115L235.08 397.755L290.42 365.915Z" fill="#393939"/>
<path opacity="0.6" d="M290.42 365.915L284.01 362.215C283.093 361.619 282.329 360.815 281.782 359.868C281.234 358.921 280.918 357.858 280.86 356.765V326.295L225.63 358.205V388.665C225.688 389.758 226.004 390.821 226.552 391.768C227.099 392.715 227.863 393.519 228.78 394.115L235.08 397.755L290.42 365.915Z" fill="black"/>
<path d="M318.24 385.965V390.405C318.24 392.875 316.6 395.325 313.35 397.215L281.73 415.405C278.265 417.262 274.391 418.224 270.46 418.205V413.825C274.391 413.844 278.265 412.882 281.73 411.025L313.35 392.735C316.6 390.905 318.24 388.405 318.24 385.965Z" fill="#393939"/>
<path opacity="0.2" d="M318.24 385.965V390.405C318.24 392.875 316.6 395.325 313.35 397.215L281.73 415.405C278.265 417.262 274.391 418.224 270.46 418.205V413.825C274.391 413.844 278.265 412.882 281.73 411.025L313.35 392.735C316.6 390.905 318.24 388.405 318.24 385.965Z" fill="black"/>
<path d="M136.95 430.725C138.144 431.302 139.456 431.59 140.782 431.566C142.107 431.541 143.408 431.206 144.58 430.585L358.16 307.275C359.304 306.526 360.256 305.519 360.938 304.334C361.621 303.149 362.015 301.821 362.09 300.455V113.515C362.044 112.192 361.685 110.897 361.044 109.738C360.403 108.579 359.497 107.588 358.4 106.845C357.209 106.266 355.897 105.977 354.573 106.001C353.249 106.026 351.949 106.363 350.78 106.985L137.2 230.295C136.055 231.041 135.103 232.046 134.42 233.23C133.737 234.413 133.343 235.741 133.27 237.105V424.105C133.328 425.419 133.69 426.701 134.329 427.85C134.968 428.999 135.865 429.983 136.95 430.725Z" fill="#393939"/>
<path opacity="0.3" d="M136.95 430.725C138.144 431.302 139.456 431.59 140.782 431.566C142.107 431.541 143.408 431.206 144.58 430.585L358.16 307.275C359.304 306.526 360.256 305.519 360.938 304.334C361.621 303.149 362.015 301.821 362.09 300.455V113.515C362.044 112.192 361.685 110.897 361.044 109.738C360.403 108.579 359.497 107.588 358.4 106.845C357.209 106.266 355.897 105.977 354.573 106.001C353.249 106.026 351.949 106.363 350.78 106.985L137.2 230.295C136.055 231.041 135.103 232.046 134.42 233.23C133.737 234.413 133.343 235.741 133.27 237.105V424.105C133.328 425.419 133.69 426.701 134.329 427.85C134.968 428.999 135.865 429.983 136.95 430.725Z" fill="black"/>
<path d="M144.58 430.575L358.16 307.265C359.306 306.52 360.26 305.515 360.945 304.332C361.629 303.148 362.025 301.82 362.1 300.455V113.505C362.1 110.995 360.33 109.985 358.16 111.235L144.58 234.545C143.431 235.298 142.476 236.312 141.793 237.504C141.11 238.696 140.718 240.033 140.65 241.405V428.305C140.65 430.815 142.41 431.835 144.58 430.575Z" fill="#393939"/>
<path d="M144.58 430.575L358.16 307.265C359.306 306.52 360.26 305.515 360.945 304.332C361.629 303.148 362.025 301.82 362.1 300.455V113.505C362.1 110.995 360.33 109.985 358.16 111.235L144.58 234.545C143.431 235.298 142.476 236.312 141.793 237.504C141.11 238.696 140.718 240.033 140.65 241.405V428.305C140.65 430.815 142.41 431.835 144.58 430.575Z" fill="#393939"/>
<path opacity="0.5" d="M144.58 430.575L358.16 307.265C359.306 306.52 360.26 305.515 360.945 304.332C361.629 303.148 362.025 301.82 362.1 300.455V113.505C362.1 110.995 360.33 109.985 358.16 111.235L144.58 234.545C143.431 235.298 142.476 236.312 141.793 237.504C141.11 238.696 140.718 240.033 140.65 241.405V428.305C140.65 430.815 142.41 431.835 144.58 430.575Z" fill="black"/>
<path d="M144 430.875C142.89 431.35 141.691 431.582 140.484 431.557C139.277 431.531 138.089 431.247 137 430.725C135.903 429.981 134.997 428.987 134.356 427.827C133.715 426.666 133.356 425.371 133.31 424.045V403.045L140.69 407.315V428.315C140.64 430.605 142.09 431.635 144 430.875Z" fill="#393939"/>
<path opacity="0.7" d="M144 430.875C142.89 431.35 141.691 431.582 140.484 431.557C139.277 431.531 138.089 431.247 137 430.725C135.903 429.981 134.997 428.987 134.356 427.827C133.715 426.666 133.356 425.371 133.31 424.045V403.045L140.69 407.315V428.315C140.64 430.605 142.09 431.635 144 430.875Z" fill="black"/>
<path d="M140.65 407.285V428.285C140.65 430.795 142.41 431.815 144.58 430.555L358.16 307.265C359.306 306.52 360.26 305.515 360.945 304.332C361.629 303.148 362.025 301.82 362.1 300.455V279.405L140.65 407.285Z" fill="#393939"/>
<g opacity="0.5">
<path d="M140.65 407.285V428.285C140.65 430.795 142.41 431.815 144.58 430.555L358.16 307.265C359.306 306.52 360.26 305.515 360.945 304.332C361.629 303.148 362.025 301.82 362.1 300.455V279.405L140.65 407.285Z" fill="black"/>
</g>
<path d="M148.03 391.775V243.775C148.072 242.956 148.308 242.157 148.718 241.446C149.128 240.735 149.701 240.132 150.39 239.685L352.39 123.075C353.69 122.325 354.75 122.935 354.75 124.445V272.405C354.706 273.225 354.469 274.022 354.059 274.732C353.649 275.443 353.077 276.047 352.39 276.495L150.39 393.095C149.08 393.885 148.03 393.275 148.03 391.775Z" fill="#FAFAFA"/>
<path d="M251.37 351.885C250.295 352.585 249.401 353.528 248.759 354.638C248.118 355.749 247.748 356.995 247.68 358.275C247.68 360.625 249.33 361.585 251.37 360.405C252.444 359.705 253.337 358.761 253.979 357.651C254.62 356.541 254.99 355.295 255.06 354.015C255.06 351.655 253.41 350.705 251.37 351.885Z" fill="#393939"/>
<path opacity="0.5" d="M251.37 351.885C250.295 352.585 249.401 353.528 248.759 354.638C248.118 355.749 247.748 356.995 247.68 358.275C247.68 360.625 249.33 361.585 251.37 360.405C252.444 359.705 253.337 358.761 253.979 357.651C254.62 356.541 254.99 355.295 255.06 354.015C255.06 351.655 253.41 350.705 251.37 351.885Z" fill="white"/>
<path d="M141.8 237.465C141.093 238.662 140.694 240.016 140.64 241.405V407.285L133.26 403.015V237.105C133.317 235.732 133.716 234.395 134.42 233.215L141.8 237.465Z" fill="#393939"/>
<path opacity="0.7" d="M141.8 237.465C141.093 238.662 140.694 240.016 140.64 241.405V407.285L133.26 403.015V237.105C133.317 235.732 133.716 234.395 134.42 233.215L141.8 237.465Z" fill="black"/>
<path d="M218.43 473.345L271.79 504.245C272.719 504.719 273.747 504.967 274.79 504.967C275.833 504.967 276.861 504.719 277.79 504.245L435.43 413.405C437.09 412.405 437.09 410.905 435.43 409.945L382.06 379.045C381.131 378.571 380.103 378.324 379.06 378.324C378.017 378.324 376.989 378.571 376.06 379.045L218.43 469.895C216.78 470.845 216.77 472.405 218.43 473.345Z" fill="#494949"/>
<path d="M432.2 404.405C432.165 404.033 432.032 403.677 431.814 403.373C431.596 403.069 431.301 402.828 430.96 402.675L380.83 373.745C379.901 373.271 378.873 373.024 377.83 373.024C376.787 373.024 375.759 373.271 374.83 373.745L221.83 462.205C221.491 462.36 221.199 462.602 220.983 462.905C220.767 463.209 220.635 463.564 220.6 463.935V469.195C220.633 469.567 220.766 469.923 220.984 470.225C221.203 470.528 221.498 470.766 221.84 470.915L271.95 499.855C272.88 500.327 273.907 500.573 274.95 500.573C275.993 500.573 277.02 500.327 277.95 499.855L430.95 411.525C431.291 411.374 431.585 411.136 431.803 410.833C432.021 410.531 432.154 410.176 432.19 409.805L432.2 404.405Z" fill="#393939"/>
<path opacity="0.5" d="M432.2 404.405C432.165 404.033 432.032 403.677 431.814 403.373C431.596 403.069 431.301 402.828 430.96 402.675L380.83 373.745C379.901 373.271 378.873 373.024 377.83 373.024C376.787 373.024 375.759 373.271 374.83 373.745L221.83 462.205C221.491 462.36 221.199 462.602 220.983 462.905C220.767 463.209 220.635 463.564 220.6 463.935V469.195C220.633 469.567 220.766 469.923 220.984 470.225C221.203 470.528 221.498 470.766 221.84 470.915L271.95 499.855C272.88 500.327 273.907 500.573 274.95 500.573C275.993 500.573 277.02 500.327 277.95 499.855L430.95 411.525C431.291 411.374 431.585 411.136 431.803 410.833C432.021 410.531 432.154 410.176 432.19 409.805L432.2 404.405Z" fill="black"/>
<path d="M271.98 494.475L221.87 465.665C220.22 464.715 220.21 463.175 221.87 462.215L374.87 373.755C375.799 373.281 376.827 373.034 377.87 373.034C378.913 373.034 379.941 373.281 380.87 373.755L431 402.695C432.65 403.695 432.65 405.195 431 406.155L278 494.485C277.067 494.959 276.035 495.205 274.989 495.203C273.942 495.201 272.911 494.952 271.98 494.475Z" fill="#393939"/>
<path opacity="0.3" d="M271.98 494.475L221.87 465.665C220.22 464.715 220.21 463.175 221.87 462.215L374.87 373.755C375.799 373.281 376.827 373.034 377.87 373.034C378.913 373.034 379.941 373.281 380.87 373.755L431 402.695C432.65 403.695 432.65 405.195 431 406.155L278 494.485C277.067 494.959 276.035 495.205 274.989 495.203C273.942 495.201 272.911 494.952 271.98 494.475Z" fill="black"/>
<path d="M274.78 495.185V500.565C273.803 500.554 272.841 500.318 271.97 499.875L221.88 470.935C221.537 470.784 221.24 470.544 221.02 470.24C220.8 469.936 220.666 469.579 220.63 469.205V463.935C220.669 464.308 220.805 464.664 221.024 464.967C221.243 465.271 221.538 465.512 221.88 465.665L271.97 494.485C272.837 494.94 273.801 495.18 274.78 495.185Z" fill="#393939"/>
<path opacity="0.7" d="M274.78 495.185V500.565C273.803 500.554 272.841 500.318 271.97 499.875L221.88 470.935C221.537 470.784 221.24 470.544 221.02 470.24C220.8 469.936 220.666 469.579 220.63 469.205V463.935C220.669 464.308 220.805 464.664 221.024 464.967C221.243 465.271 221.538 465.512 221.88 465.665L271.97 494.485C272.837 494.94 273.801 495.18 274.78 495.185Z" fill="black"/>
<path d="M338.77 411.005L344.48 414.305C344.594 414.365 344.721 414.396 344.85 414.395L350.11 411.465L343.97 408.005L338.77 411.005Z" fill="#37474F"/>
<path d="M345.64 407.045L351.38 410.355C351.486 410.406 351.603 410.43 351.72 410.425H351.93L356.98 407.505L350.84 404.055L345.64 407.045Z" fill="#37474F"/>
<path d="M327.2 417.695L332.93 421.005C333.036 421.055 333.153 421.079 333.27 421.075L341.79 416.265L335.65 412.815L327.2 417.695Z" fill="#37474F"/>
<path d="M320.33 421.665L326.05 424.965C326.159 425.019 326.279 425.046 326.4 425.045L331.67 422.115L325.53 418.665L320.33 421.665Z" fill="#37474F"/>
<path d="M288.93 473.585L294.2 470.655L288.06 467.205L282.86 470.205L288.59 473.525C288.699 473.566 288.814 473.586 288.93 473.585Z" fill="#37474F"/>
<path d="M313.45 425.625L319.16 428.925C319.273 428.988 319.401 429.02 319.53 429.015L324.79 426.085L318.65 422.625L313.45 425.625Z" fill="#37474F"/>
<path d="M351.74 412.495L346.54 415.495L352.26 418.795C352.367 418.853 352.488 418.881 352.61 418.875L357.88 415.945L351.74 412.495Z" fill="#37474F"/>
<path d="M332.53 439.405L337.8 436.475L331.65 433.025L326.45 436.025L332.18 439.335C332.289 439.386 332.409 439.41 332.53 439.405Z" fill="#37474F"/>
<path d="M359.53 414.915L364.79 411.985L358.65 408.525L353.45 411.525L359.19 414.835C359.295 414.89 359.412 414.917 359.53 414.915Z" fill="#37474F"/>
<path d="M325.66 443.405L330.92 440.475L324.78 437.015L319.58 440.015L325.29 443.315C325.403 443.378 325.531 443.41 325.66 443.405Z" fill="#37474F"/>
<path d="M318.79 447.405L324.05 444.475L317.91 441.015L312.71 444.015L318.44 447.325C318.549 447.379 318.669 447.406 318.79 447.405Z" fill="#37474F"/>
<path d="M346.27 431.505L357.32 425.235L343.42 417.295L337.53 420.715L344.8 424.905C344.859 424.932 344.909 424.974 344.946 425.027C344.983 425.079 345.005 425.141 345.01 425.205C345.007 425.262 344.988 425.317 344.957 425.365C344.925 425.412 344.881 425.45 344.83 425.475L340.24 428.125L345.94 431.415C346.041 431.471 346.154 431.502 346.27 431.505Z" fill="#37474F"/>
<path d="M299.71 433.565L305.44 436.875C305.546 436.926 305.663 436.95 305.78 436.945L311.05 434.015L304.9 430.565L299.71 433.565Z" fill="#37474F"/>
<path d="M339.4 435.475L344.67 432.545L338.53 429.095L333.33 432.095L339.02 435.375C339.135 435.442 339.267 435.477 339.4 435.475Z" fill="#37474F"/>
<path d="M261.1 471.715L266.37 468.785L260.22 465.325L255.02 468.325L260.73 471.615C260.843 471.679 260.97 471.713 261.1 471.715Z" fill="#37474F"/>
<path d="M244.73 465.305L250.47 468.625C250.574 468.671 250.686 468.695 250.8 468.695H251.01L256.07 465.775L249.92 462.325L244.73 465.305Z" fill="#37474F"/>
<path d="M270.68 475.155H270.89L275.89 472.235L269.75 468.785L264.55 471.785L270.29 475.095C270.414 475.145 270.547 475.166 270.68 475.155Z" fill="#37474F"/>
<path d="M275.19 481.515L280.46 478.585L274.31 475.135L269.11 478.135L274.82 481.425C274.932 481.49 275.061 481.522 275.19 481.515Z" fill="#37474F"/>
<path d="M251.6 461.335L257.33 464.655C257.438 464.7 257.553 464.723 257.67 464.725L262.94 461.795L256.79 458.345L251.6 461.335Z" fill="#37474F"/>
<path d="M282.06 477.555L287.32 474.615L281.18 471.165L275.99 474.165L281.72 477.475C281.825 477.529 281.942 477.556 282.06 477.555Z" fill="#37474F"/>
<path d="M272.22 449.405L277.94 452.715C278.05 452.765 278.169 452.789 278.29 452.785L283.56 449.865L277.41 446.405L272.22 449.405Z" fill="#37474F"/>
<path d="M279.09 445.465L284.8 448.765C284.91 448.827 285.034 448.858 285.16 448.855L290.43 445.925L284.29 442.465L279.09 445.465Z" fill="#37474F"/>
<path d="M285.96 441.495L291.66 444.795C291.774 444.856 291.901 444.887 292.03 444.885L297.3 441.955L291.16 438.505L285.96 441.495Z" fill="#37474F"/>
<path d="M265.34 453.405L271.05 456.695C271.159 456.759 271.283 456.794 271.41 456.795L276.69 453.855L270.53 450.405L265.34 453.405Z" fill="#37474F"/>
<path d="M292.84 437.535L298.57 440.845C298.677 440.893 298.793 440.917 298.91 440.915L304.18 437.985L298.03 434.535L292.84 437.535Z" fill="#37474F"/>
<path d="M258.47 457.405L264.2 460.705C264.309 460.759 264.429 460.786 264.55 460.785L269.81 457.855L263.67 454.405L258.47 457.405Z" fill="#37474F"/>
<path d="M306.58 429.595L312.32 432.915C312.424 432.961 312.536 432.985 312.65 432.985L317.92 430.055L311.78 426.595L306.58 429.595Z" fill="#37474F"/>
<path d="M323.75 428.655L329.46 431.945C329.573 432.008 329.701 432.039 329.83 432.035H330.04L335.09 429.115L328.95 425.665L323.75 428.655Z" fill="#37474F"/>
<path d="M360.84 398.275L366.55 401.565C366.661 401.625 366.784 401.656 366.91 401.655L372.18 398.725L366.03 395.275L360.84 398.275Z" fill="#37474F"/>
<path d="M367.71 394.305L373.42 397.595C373.53 397.657 373.654 397.688 373.78 397.685L379.05 394.755L372.91 391.305L367.71 394.305Z" fill="#37474F"/>
<path d="M316.88 432.615L322.59 435.915C322.701 435.975 322.824 436.006 322.95 436.005L328.22 433.075L322.08 429.615L316.88 432.615Z" fill="#37474F"/>
<path d="M374.58 390.335L380.29 393.635C380.401 393.694 380.524 393.725 380.65 393.725L385.92 390.785L379.78 387.335L374.58 390.335Z" fill="#37474F"/>
<path d="M336.7 428.065H336.91L341.96 425.145L335.82 421.695L330.62 424.695L336.33 427.985C336.445 428.043 336.572 428.07 336.7 428.065Z" fill="#37474F"/>
<path d="M368.6 402.755L374.3 406.045C374.417 406.109 374.547 406.143 374.68 406.145L379.94 403.215L373.8 399.755L368.6 402.755Z" fill="#37474F"/>
<path d="M382.35 394.815L388.05 398.105C388.162 398.171 388.29 398.206 388.42 398.205L393.69 395.275L387.53 391.825L382.35 394.815Z" fill="#37474F"/>
<path d="M381.53 402.175L386.8 399.245L380.65 395.785L375.45 398.785L381.18 402.095C381.289 402.149 381.409 402.176 381.53 402.175Z" fill="#37474F"/>
<path d="M402.74 398.655C402.841 398.7 402.95 398.723 403.06 398.725H403.28L408.33 395.815L394.42 387.875L389.22 390.875L402.74 398.655Z" fill="#37474F"/>
<path d="M310 436.585L315.72 439.885C315.83 439.947 315.954 439.978 316.08 439.975H316.29L321.35 437.065L315.2 433.605L310 436.585Z" fill="#37474F"/>
<path d="M389.32 406.655H389.53L394.58 403.735L388.44 400.285L383.24 403.285L388.95 406.575C389.065 406.633 389.192 406.66 389.32 406.655Z" fill="#37474F"/>
<path d="M396.19 402.685L401.46 399.755L395.31 396.305L390.11 399.305L395.81 402.595C395.927 402.657 396.058 402.688 396.19 402.685Z" fill="#37474F"/>
<path d="M275.64 456.405L281.35 459.695C281.463 459.76 281.59 459.794 281.72 459.795L286.98 456.865L280.84 453.405L275.64 456.405Z" fill="#37474F"/>
<path d="M261.9 464.405L267.6 467.695C267.713 467.758 267.841 467.789 267.97 467.785H268.18L273.24 464.865L267.09 461.405L261.9 464.405Z" fill="#37474F"/>
<path d="M284.42 467.225L289.69 464.295L283.53 460.835L278.34 463.835L284.08 467.145C284.184 467.201 284.302 467.229 284.42 467.225Z" fill="#37474F"/>
<path d="M277.53 471.185L282.8 468.255L276.65 464.805L271.45 467.805L277.19 471.115C277.296 471.166 277.413 471.19 277.53 471.185Z" fill="#37474F"/>
<path d="M291.29 463.255H291.51L296.56 460.345L290.42 456.885L285.22 459.885L290.92 463.175C291.034 463.234 291.162 463.262 291.29 463.255Z" fill="#37474F"/>
<path d="M303.13 440.555L308.85 443.855C308.962 443.911 309.085 443.938 309.21 443.935H309.42L314.47 441.015L308.33 437.565L303.13 440.555Z" fill="#37474F"/>
<path d="M305.04 455.315L310.31 452.385L304.16 448.935L298.96 451.935L304.67 455.225C304.784 455.285 304.911 455.316 305.04 455.315Z" fill="#37474F"/>
<path d="M298.17 459.285L303.43 456.405L297.29 452.955L292.09 455.955L297.83 459.275C297.942 459.3 298.057 459.304 298.17 459.285Z" fill="#37474F"/>
<path d="M289.39 448.495L295.09 451.785C295.203 451.848 295.331 451.879 295.46 451.875L300.73 448.945L294.59 445.495L289.39 448.495Z" fill="#37474F"/>
<path d="M268.77 460.405L274.47 463.695C274.587 463.757 274.718 463.788 274.85 463.785L280.11 460.855L273.97 457.405L268.77 460.405Z" fill="#37474F"/>
<path d="M296.26 444.525L301.97 447.815C302.083 447.878 302.211 447.909 302.34 447.905L307.6 444.975L301.46 441.525L296.26 444.525Z" fill="#37474F"/>
<path d="M282.53 452.455L288.23 455.755C288.343 455.818 288.471 455.849 288.6 455.845H288.81L293.87 452.935L287.72 449.475L282.53 452.455Z" fill="#37474F"/>
<path d="M311.91 451.345L317.18 448.415L311.03 444.965L305.84 447.965L311.56 451.265C311.667 451.323 311.788 451.351 311.91 451.345Z" fill="#37474F"/>
<path d="M352.53 403.075L358.26 406.385C358.367 406.434 358.483 406.458 358.6 406.455L363.87 403.525L357.72 400.075L352.53 403.075Z" fill="#37474F"/>
<path d="M243.05 466.275L237.85 469.275L243.59 472.585C243.696 472.636 243.813 472.66 243.93 472.655H244.14L249.2 469.735L243.05 466.275Z" fill="#37474F"/>
<path d="M253.35 469.295L245.62 473.755L251.36 477.075C251.464 477.121 251.576 477.145 251.69 477.145H251.91L259.49 472.765L253.35 469.295Z" fill="#37474F"/>
<path d="M234.71 460.205L228.42 463.835L234.14 467.125C234.25 467.187 234.374 467.218 234.5 467.215L240.85 463.665L234.71 460.205Z" fill="#37474F"/>
<path d="M267.44 479.105L261.16 482.735L266.86 486.025C266.974 486.085 267.101 486.116 267.23 486.115L273.58 482.555L267.44 479.105Z" fill="#37474F"/>
<path d="M262.92 472.745L253.39 478.245L259.12 481.555C259.227 481.604 259.343 481.628 259.46 481.625H259.67L269.07 476.205L262.92 472.745Z" fill="#37474F"/>
<path d="M245.45 460.895L250.71 457.965L244.53 454.515L239.33 457.515L245.04 460.815C245.166 460.881 245.308 460.909 245.45 460.895Z" fill="#37474F"/>
<path d="M268.92 487.215L274.63 490.515C274.742 490.569 274.866 490.596 274.99 490.595L282.79 486.205L276.65 482.755L268.92 487.215Z" fill="#37474F"/>
<path d="M252.32 456.925L257.59 453.995L251.44 450.545L246.25 453.545L251.98 456.855C252.087 456.904 252.203 456.928 252.32 456.925Z" fill="#37474F"/>
<path d="M282.8 439.335H283.01L288.07 436.415L281.92 432.965L276.73 435.965L282.44 439.265C282.552 439.32 282.676 439.344 282.8 439.335Z" fill="#37474F"/>
<path d="M289.67 435.405L294.94 432.475L288.8 429.015L283.6 432.015L289.32 435.315C289.427 435.376 289.547 435.407 289.67 435.405Z" fill="#37474F"/>
<path d="M275.93 443.295H276.14L281.14 440.375L275 436.925L269.8 439.925L275.53 443.205C275.653 443.271 275.791 443.303 275.93 443.295Z" fill="#37474F"/>
<path d="M266.06 448.995H266.28L271.33 446.085L265.19 442.625L259.99 445.625L265.71 448.925C265.818 448.981 265.939 449.005 266.06 448.995Z" fill="#37474F"/>
<path d="M259.19 452.965L264.46 450.035L258.32 446.575L253.12 449.575L258.85 452.885C258.955 452.94 259.072 452.967 259.19 452.965Z" fill="#37474F"/>
<path d="M405.66 408.275L411.4 411.595C411.505 411.637 411.617 411.658 411.73 411.655H411.94L416.94 408.735L410.8 405.285L405.66 408.275Z" fill="#37474F"/>
<path d="M369.84 428.945L375.54 432.235C375.651 432.303 375.78 432.338 375.91 432.335L381.18 429.405L375.04 425.945L369.84 428.945Z" fill="#37474F"/>
<path d="M391.91 416.215L397.62 419.505C397.731 419.565 397.854 419.596 397.98 419.595H398.19L410.12 412.705L403.98 409.255L391.91 416.215Z" fill="#37474F"/>
<path d="M376.71 424.985L382.41 428.265C382.525 428.334 382.656 428.368 382.79 428.365L388.06 425.435L381.91 421.985L376.71 424.985Z" fill="#37474F"/>
<path d="M383.59 421.015L389.27 424.285C389.385 424.363 389.522 424.401 389.66 424.395L394.93 421.465L388.78 418.015L383.59 421.015Z" fill="#37474F"/>
<path d="M296.53 431.405H296.75L301.8 428.485L295.66 425.025L290.46 428.025L296.16 431.315C296.274 431.376 296.401 431.407 296.53 431.405Z" fill="#37474F"/>
<path d="M409.96 396.815L404.76 399.815L418.27 407.615C418.374 407.661 418.486 407.685 418.6 407.685H418.81L423.86 404.765L409.96 396.815Z" fill="#37474F"/>
<path d="M286.29 477.195L291.99 480.485C292.104 480.545 292.231 480.576 292.36 480.575L298.71 477.015L292.53 473.565L286.29 477.195Z" fill="#37474F"/>
<path d="M294.24 472.595L299.94 475.885C300.056 475.951 300.187 475.985 300.32 475.985H300.53L339.59 453.405L333.44 449.945L294.24 472.595Z" fill="#37474F"/>
<path d="M295.8 469.615L301.07 466.685L294.93 463.235L289.73 466.235L295.46 469.535C295.566 469.588 295.682 469.615 295.8 469.615Z" fill="#37474F"/>
<path d="M278.33 481.785L284.03 485.075C284.143 485.139 284.27 485.173 284.4 485.175L290.75 481.615L284.61 478.155L278.33 481.785Z" fill="#37474F"/>
<path d="M335.12 448.995L340.83 452.295C340.942 452.352 341.065 452.383 341.19 452.385H341.41L347.54 448.845L341.4 445.405L335.12 448.995Z" fill="#37474F"/>
<path d="M351.03 439.805L356.76 443.115C356.868 443.171 356.988 443.198 357.11 443.195H357.32L363.46 439.655L357.32 436.195L351.03 439.805Z" fill="#37474F"/>
<path d="M343.07 444.405L348.81 447.715C348.917 447.764 349.033 447.788 349.15 447.785L355.5 444.225L349.36 440.775L343.07 444.405Z" fill="#37474F"/>
<path d="M358.99 435.215L364.7 438.505C364.813 438.568 364.941 438.599 365.07 438.595H365.28L372.86 434.215L366.72 430.765L358.99 435.215Z" fill="#37474F"/>
<path d="M366.36 410.945H366.57L371.63 408.035L365.53 404.555L360.33 407.555L366.06 410.865C366.153 410.913 366.255 410.94 366.36 410.945Z" fill="#37474F"/>
<path d="M375.02 423.885H375.23L380.29 420.965L374.15 417.515L368.95 420.515L374.67 423.825C374.78 423.873 374.9 423.894 375.02 423.885Z" fill="#37474F"/>
<path d="M350.79 437.875L365.1 429.715L358.95 426.265L344.71 434.485L350.45 437.795C350.555 437.851 350.672 437.878 350.79 437.875Z" fill="#37474F"/>
<path d="M390.21 415.105H390.43L395.48 412.185L389.34 408.735L384.14 411.735L389.87 415.045C389.977 415.091 390.094 415.111 390.21 415.105Z" fill="#37474F"/>
<path d="M397.09 411.145H397.3L402.35 408.235L396.21 404.775L391.01 407.775L396.73 411.085C396.844 411.133 396.967 411.154 397.09 411.145Z" fill="#37474F"/>
<path d="M343.91 441.845L349.18 438.915L343.04 435.455L337.84 438.455L343.55 441.755C343.661 441.813 343.785 441.844 343.91 441.845Z" fill="#37474F"/>
<path d="M382.45 410.625H382.66L387.71 407.705L381.53 404.245L376.33 407.245L382.03 410.525C382.155 410.603 382.303 410.638 382.45 410.625Z" fill="#37474F"/>
<path d="M309.53 461.675L314.8 458.745L308.65 455.295L303.46 458.295L309.19 461.605C309.296 461.656 309.413 461.68 309.53 461.675Z" fill="#37474F"/>
<path d="M337.04 445.805L342.31 442.875L336.16 439.405L330.97 442.405L336.71 445.725C336.814 445.772 336.926 445.8 337.04 445.805Z" fill="#37474F"/>
<path d="M302.68 465.645H302.89L307.89 462.725L301.75 459.275L296.55 462.275L302.29 465.585C302.412 465.642 302.547 465.663 302.68 465.645Z" fill="#37474F"/>
<path d="M316.42 457.715L321.69 454.785L315.53 451.325L310.33 454.325L316.08 457.645C316.186 457.696 316.303 457.72 316.42 457.715Z" fill="#37474F"/>
<path d="M323.3 453.745H323.53L328.58 450.825L322.42 447.405L317.22 450.405L322.93 453.705C323.048 453.751 323.175 453.765 323.3 453.745Z" fill="#37474F"/>
<path d="M330.17 449.775H330.38L335.44 446.855L329.29 443.405L324.09 446.405L329.83 449.715C329.938 449.758 330.054 449.779 330.17 449.775Z" fill="#37474F"/>
<path d="M313.28 421.735L318.53 418.805L312.38 415.345L307.18 418.345L312.89 421.635C313.006 421.708 313.143 421.743 313.28 421.735Z" fill="#37474F"/>
<path d="M403.96 407.175H404.17L409.23 404.265L403.08 400.805L397.88 403.805L403.62 407.125C403.729 407.165 403.844 407.182 403.96 407.175Z" fill="#37474F"/>
<path d="M327.03 413.795L332.29 410.865L326.15 407.405L320.95 410.405L326.65 413.695C326.766 413.761 326.897 413.795 327.03 413.795Z" fill="#37474F"/>
<path d="M342.29 404.985L347.56 402.055L341.41 398.595L336.22 401.595L341.93 404.895C342.04 404.957 342.164 404.988 342.29 404.985Z" fill="#37474F"/>
<path d="M335.42 408.955L340.68 406.025L334.53 402.565L329.33 405.565L335.04 408.865C335.157 408.928 335.288 408.959 335.42 408.955Z" fill="#37474F"/>
<path d="M306.41 425.705L311.68 422.765L305.53 419.315L300.34 422.315L306.05 425.615C306.162 425.672 306.285 425.703 306.41 425.705Z" fill="#37474F"/>
<path d="M320.15 417.765H320.37L325.37 414.845L319.28 411.405L314.08 414.405L319.78 417.695C319.896 417.749 320.023 417.773 320.15 417.765Z" fill="#37474F"/>
<path d="M349.16 401.015L354.43 398.085L348.29 394.635L343.09 397.635L348.8 400.925C348.91 400.987 349.034 401.018 349.16 401.015Z" fill="#37474F"/>
<path d="M376.11 383.155L381.37 380.225L378.03 378.405L372.83 381.405L375.75 383.055C375.861 383.116 375.984 383.15 376.11 383.155Z" fill="#37474F"/>
<path d="M387.53 389.755L392.8 386.825L386.65 383.405L381.45 386.405L387.16 389.705C387.277 389.752 387.404 389.769 387.53 389.755Z" fill="#37474F"/>
<path d="M355.53 395.065H355.74L360.79 392.145L357.45 390.345L352.25 393.345L355.16 394.995C355.277 395.045 355.403 395.069 355.53 395.065Z" fill="#37474F"/>
<path d="M362.36 391.095H362.57L367.57 388.185L364.29 386.405L359.09 389.405L362.02 391.055C362.129 391.094 362.245 391.108 362.36 391.095Z" fill="#37474F"/>
<path d="M369.23 387.125L374.5 384.195L371.16 382.405L365.96 385.405L368.9 387.065C369.005 387.107 369.117 387.128 369.23 387.125Z" fill="#37474F"/>
<g opacity="0.8">
<path d="M377.05 128.165V276.615C376.993 277.685 376.684 278.726 376.149 279.654C375.614 280.582 374.867 281.37 373.97 281.955L173.88 397.695C173.579 397.882 173.234 397.986 172.88 397.995C172.75 398.01 172.62 398.01 172.49 397.995C172.4 397.976 172.313 397.946 172.23 397.905L172.06 397.805L171.88 397.685C171.819 397.641 171.762 397.591 171.71 397.535C171.468 397.306 171.275 397.03 171.14 396.725C170.927 396.233 170.818 395.702 170.82 395.165V247.405C170.88 246.334 171.191 245.292 171.728 244.362C172.264 243.433 173.012 242.643 173.91 242.055L373.97 126.405C374.268 126.198 374.613 126.066 374.973 126.021C375.334 125.976 375.7 126.018 376.04 126.145C376.134 126.188 376.224 126.238 376.31 126.295C376.389 126.353 376.457 126.424 376.51 126.505C376.545 126.537 376.576 126.574 376.6 126.615C376.642 126.662 376.676 126.717 376.7 126.775C376.78 126.895 376.841 127.027 376.88 127.165C376.915 127.255 376.939 127.35 376.95 127.445C376.954 127.455 376.957 127.465 376.957 127.475C376.957 127.486 376.954 127.496 376.95 127.505C376.977 127.597 376.994 127.691 377 127.785C377.04 127.895 377.05 128.025 377.05 128.165Z" fill="#E17120"/>
<path d="M375.34 126.965C375.443 126.966 375.545 126.986 375.64 127.025H375.7L375.78 127.135L375.86 127.245C375.86 127.245 375.86 127.245 375.86 127.295L375.95 127.585C375.949 127.609 375.949 127.632 375.95 127.655C375.95 127.755 375.95 127.855 375.95 127.965V276.615C375.895 277.511 375.633 278.381 375.186 279.158C374.738 279.935 374.117 280.598 373.37 281.095L173.38 396.835C173.225 396.936 173.045 396.991 172.86 396.995H172.65H172.58L172.45 396.905V396.855C172.307 396.725 172.194 396.565 172.12 396.385C171.958 396.02 171.876 395.625 171.88 395.225V247.405C171.935 246.509 172.197 245.638 172.647 244.86C173.096 244.082 173.72 243.42 174.47 242.925L374.46 127.245C374.727 127.083 375.028 126.987 375.34 126.965ZM375.34 125.965C374.855 125.98 374.383 126.122 373.97 126.375L173.88 242.065C172.983 242.652 172.236 243.44 171.7 244.368C171.163 245.295 170.852 246.336 170.79 247.405V395.105C170.788 395.642 170.897 396.173 171.11 396.665C171.245 396.97 171.438 397.246 171.68 397.475C171.732 397.531 171.789 397.581 171.85 397.625L172.03 397.745L172.2 397.845C172.283 397.886 172.37 397.916 172.46 397.935C172.59 397.95 172.72 397.95 172.85 397.935H172.9C173.254 397.926 173.599 397.822 173.9 397.635L373.97 281.955C374.867 281.37 375.614 280.582 376.149 279.654C376.684 278.726 376.993 277.685 377.05 276.615V128.165C377.05 128.025 377.05 127.895 377.05 127.775C377.044 127.68 377.027 127.587 377 127.495C377.004 127.486 377.007 127.476 377.007 127.465C377.007 127.455 377.004 127.445 377 127.435C376.989 127.34 376.965 127.245 376.93 127.155C376.891 127.017 376.83 126.885 376.75 126.765C376.726 126.707 376.692 126.652 376.65 126.605C376.626 126.564 376.595 126.527 376.56 126.495C376.507 126.414 376.439 126.343 376.36 126.285C376.274 126.228 376.184 126.178 376.09 126.135C375.871 126.034 375.632 125.983 375.39 125.985L375.34 125.965Z" fill="#E17120"/>
<g opacity="0.7">
<path d="M377.05 128.165V276.615C376.993 277.685 376.684 278.726 376.149 279.654C375.614 280.582 374.867 281.37 373.97 281.955L173.88 397.695C173.579 397.882 173.234 397.986 172.88 397.995C172.75 398.01 172.62 398.01 172.49 397.995C172.4 397.976 172.313 397.946 172.23 397.905L172.06 397.805L171.88 397.685C171.819 397.641 171.762 397.591 171.71 397.535C171.468 397.306 171.275 397.03 171.14 396.725C170.927 396.233 170.818 395.702 170.82 395.165V247.405C170.88 246.334 171.191 245.292 171.728 244.362C172.264 243.433 173.012 242.643 173.91 242.055L373.97 126.405C374.268 126.198 374.613 126.066 374.973 126.021C375.334 125.976 375.7 126.018 376.04 126.145C376.134 126.188 376.224 126.238 376.31 126.295C376.389 126.353 376.457 126.424 376.51 126.505C376.545 126.537 376.576 126.574 376.6 126.615C376.642 126.662 376.676 126.717 376.7 126.775C376.78 126.895 376.841 127.027 376.88 127.165C376.915 127.255 376.939 127.35 376.95 127.445C376.954 127.455 376.957 127.465 376.957 127.475C376.957 127.486 376.954 127.496 376.95 127.505C376.977 127.597 376.994 127.691 377 127.785C377.04 127.895 377.05 128.025 377.05 128.165Z" fill="#E17120"/>
</g>
</g>
<path d="M376.04 126.115C375.7 125.988 375.334 125.946 374.973 125.991C374.613 126.036 374.268 126.168 373.97 126.375L173.88 242.065C172.983 242.652 172.236 243.44 171.7 244.368C171.163 245.295 170.852 246.336 170.79 247.405V257.485L166.85 255.175V245.175C166.909 244.108 167.218 243.069 167.753 242.143C168.288 241.217 169.034 240.43 169.93 239.845L370.03 124.155C370.349 123.92 370.729 123.778 371.124 123.746C371.52 123.714 371.917 123.794 372.27 123.975C372.82 124.305 375.38 125.775 376.04 126.115Z" fill="#393939"/>
<path d="M377.05 128.135C377.05 126.195 375.66 125.405 373.97 126.385L173.87 242.075C172.974 242.66 172.228 243.447 171.693 244.373C171.158 245.299 170.849 246.338 170.79 247.405V257.485L377.05 138.255V128.135Z" fill="#393939"/>
<g opacity="0.4">
<path d="M373.97 126.405L173.88 242.075C172.966 242.65 172.218 243.453 171.71 244.405L167.79 242.145C168.3 241.223 169.037 240.445 169.93 239.885L370.03 124.155C370.35 123.921 370.728 123.78 371.123 123.746C371.518 123.713 371.915 123.788 372.27 123.965C372.82 124.305 375.38 125.765 376.03 126.115C375.69 125.988 375.323 125.948 374.963 125.999C374.603 126.049 374.262 126.189 373.97 126.405Z" fill="white"/>
</g>
<path opacity="0.15" d="M166.85 255.195V245.195C166.893 244.105 167.217 243.044 167.79 242.115L171.72 244.365C171.145 245.289 170.824 246.348 170.79 247.435V257.515L166.85 255.195Z" fill="black"/>
<path d="M358.53 139.615C357.976 140.056 357.531 140.618 357.23 141.257C356.928 141.897 356.777 142.598 356.79 143.305C356.79 144.785 357.57 145.535 358.53 144.985C359.084 144.545 359.529 143.983 359.83 143.343C360.132 142.703 360.283 142.003 360.27 141.295C360.22 139.815 359.44 139.065 358.53 139.615Z" fill="#E17120"/>
<path d="M364.75 135.995C364.196 136.433 363.751 136.993 363.449 137.631C363.147 138.27 362.997 138.969 363.01 139.675C363.01 141.155 363.79 141.905 364.75 141.355C365.311 140.919 365.764 140.359 366.072 139.719C366.381 139.079 366.538 138.376 366.53 137.665C366.53 136.185 365.71 135.405 364.75 135.995Z" fill="#E17120"/>
<path d="M371.02 132.405C370.465 132.844 370.018 133.406 369.716 134.046C369.415 134.686 369.265 135.388 369.28 136.095C369.28 137.575 370.06 138.325 371.02 137.765C371.575 137.327 372.022 136.765 372.324 136.125C372.625 135.485 372.775 134.783 372.76 134.075C372.76 132.555 371.98 131.805 371.02 132.405Z" fill="#E17120"/>
<path opacity="0.9" d="M171.92 397.705L171.54 397.485C171.26 397.315 170.93 397.135 170.54 396.955L170.02 396.665L169.21 396.205C168.95 396.045 168.72 395.915 168.53 395.815C168.34 395.715 168.21 395.635 168.15 395.605C167.945 395.501 167.765 395.354 167.62 395.175C167.451 394.992 167.312 394.783 167.21 394.555C166.969 394.046 166.846 393.489 166.85 392.925V255.185L170.79 257.495V395.115C170.806 395.65 170.914 396.178 171.11 396.675C171.245 396.98 171.438 397.256 171.68 397.485C171.724 397.548 171.783 397.599 171.85 397.635L171.92 397.705Z" fill="#37474F"/>
<path d="M237.68 308.875C237.68 308.875 230.4 304.165 229.46 304.135L208.76 303.485L216.99 307.865V308.225L237.68 308.875Z" fill="#263238"/>
<path d="M202.2 323.065V310.065L237.68 265.955V283.155L216.99 307.825V308.185L237.68 308.835V326.035L202.2 323.065Z" fill="#FAFAFA"/>
<path d="M237.68 265.995L229.46 261.255L193.97 305.365L202.2 310.105L237.68 265.995Z" fill="#E17120"/>
<path d="M193.97 305.365V318.325L202.2 323.065V310.105L193.97 305.365Z" fill="#37474F"/>
<path d="M259.16 317.555L248.16 323.915L275.62 223.265L286.24 217.135L259.16 317.555Z" fill="#FAFAFA"/>
<path d="M286.23 217.135L278 212.395L267.38 218.525L275.6 223.265L286.23 217.135Z" fill="#E17120"/>
<path d="M267.38 218.525L275.6 223.265L248.15 323.915L239.92 319.175L267.38 218.525Z" fill="#37474F"/>
<path d="M288.47 270.065L296.69 274.805L317.38 249.905L309.16 245.165L288.47 270.065Z" fill="#263238"/>
<path d="M317.38 249.905L296.69 249.125V231.925L332.17 235.065V248.065L296.69 292.065V274.805L317.38 250.265V249.905Z" fill="#FAFAFA"/>
<path d="M288.47 227.185L296.69 231.925L332.18 235.065L323.95 230.325L288.47 227.185Z" fill="#E17120"/>
<path d="M296.69 231.925V249.125L288.47 244.385V227.185" fill="#37474F"/>
<path d="M288.47 270.065L296.69 274.805V292.005L288.47 287.265V270.065Z" fill="#37474F"/>
<g opacity="0.8">
<path d="M441.66 153.765V302.215C441.602 303.287 441.293 304.331 440.756 305.26C440.219 306.19 439.47 306.98 438.57 307.565L353.28 356.765C352.981 356.957 352.635 357.061 352.28 357.065C352.149 357.064 352.018 357.047 351.89 357.015L351.62 356.925L351.46 356.825L351.28 356.705C351.219 356.661 351.162 356.611 351.11 356.555C350.865 356.329 350.671 356.053 350.54 355.745C350.327 355.253 350.218 354.722 350.22 354.185V206.485C350.278 205.415 350.587 204.373 351.122 203.443C351.657 202.514 352.403 201.723 353.3 201.135L438.53 151.985C438.829 151.775 439.174 151.64 439.537 151.593C439.899 151.546 440.267 151.588 440.61 151.715C440.702 151.759 440.789 151.813 440.87 151.875C440.946 151.932 441.013 152 441.07 152.075C441.105 152.107 441.136 152.144 441.16 152.185C441.202 152.232 441.236 152.287 441.26 152.345C441.345 152.467 441.409 152.602 441.45 152.745C441.485 152.832 441.509 152.923 441.52 153.015C441.524 153.025 441.527 153.035 441.527 153.045C441.527 153.056 441.524 153.066 441.52 153.075C441.547 153.167 441.564 153.26 441.57 153.355C441.65 153.505 441.66 153.635 441.66 153.765Z" fill="#E17120"/>
<path d="M439.94 152.565C440.044 152.564 440.147 152.588 440.24 152.635H440.3L440.39 152.745L440.46 152.865L440.56 153.155C440.565 153.178 440.565 153.202 440.56 153.225C440.566 153.325 440.566 153.425 440.56 153.525V302.215C440.503 303.111 440.24 303.982 439.79 304.759C439.341 305.536 438.718 306.199 437.97 306.695L352.79 355.905C352.635 356.006 352.455 356.061 352.27 356.065H352.06H351.99L351.86 355.985C351.723 355.852 351.614 355.692 351.54 355.515C351.378 355.15 351.296 354.755 351.3 354.355V206.485C351.355 205.59 351.617 204.72 352.064 203.943C352.512 203.165 353.133 202.502 353.88 202.005L439.17 152.855C439.431 152.686 439.73 152.586 440.04 152.565M440.04 151.565C439.555 151.586 439.083 151.73 438.67 151.985L353.38 201.135C352.483 201.723 351.737 202.514 351.202 203.443C350.667 204.373 350.358 205.415 350.3 206.485V354.185C350.298 354.722 350.407 355.253 350.62 355.745C350.751 356.053 350.945 356.329 351.19 356.555C351.242 356.611 351.299 356.661 351.36 356.705L351.54 356.825L351.7 356.925L351.97 357.015C352.098 357.047 352.229 357.064 352.36 357.065C352.715 357.06 353.061 356.956 353.36 356.765L438.53 307.565C439.429 306.979 440.177 306.189 440.713 305.259C441.25 304.33 441.561 303.287 441.62 302.215V153.765C441.62 153.635 441.62 153.505 441.62 153.375C441.614 153.28 441.597 153.187 441.57 153.095C441.574 153.086 441.577 153.076 441.577 153.065C441.577 153.055 441.574 153.045 441.57 153.035C441.559 152.943 441.535 152.852 441.5 152.765C441.459 152.622 441.395 152.487 441.31 152.365C441.286 152.307 441.252 152.252 441.21 152.205C441.186 152.164 441.155 152.127 441.12 152.095C441.063 152.02 440.996 151.952 440.92 151.895C440.839 151.833 440.752 151.779 440.66 151.735C440.437 151.634 440.195 151.583 439.95 151.585L440.04 151.565Z" fill="#E17120"/>
<g opacity="0.8">
<path d="M441.66 153.765V302.215C441.602 303.287 441.293 304.331 440.756 305.26C440.219 306.19 439.47 306.98 438.57 307.565L353.28 356.765C352.981 356.957 352.635 357.061 352.28 357.065C352.149 357.064 352.018 357.047 351.89 357.015L351.62 356.925L351.46 356.825L351.28 356.705C351.219 356.661 351.162 356.611 351.11 356.555C350.865 356.329 350.671 356.053 350.54 355.745C350.327 355.253 350.218 354.722 350.22 354.185V206.485C350.278 205.415 350.587 204.373 351.122 203.443C351.657 202.514 352.403 201.723 353.3 201.135L438.53 151.985C438.829 151.775 439.174 151.64 439.537 151.593C439.899 151.546 440.267 151.588 440.61 151.715C440.702 151.759 440.789 151.813 440.87 151.875C440.946 151.932 441.013 152 441.07 152.075C441.105 152.107 441.136 152.144 441.16 152.185C441.202 152.232 441.236 152.287 441.26 152.345C441.345 152.467 441.409 152.602 441.45 152.745C441.485 152.832 441.509 152.923 441.52 153.015C441.524 153.025 441.527 153.035 441.527 153.045C441.527 153.056 441.524 153.066 441.52 153.075C441.547 153.167 441.564 153.26 441.57 153.355C441.65 153.505 441.66 153.635 441.66 153.765Z" fill="#E17120"/>
</g>
</g>
<path d="M440.65 151.715C440.307 151.588 439.939 151.546 439.577 151.593C439.214 151.64 438.869 151.775 438.57 151.985L353.28 201.135C352.383 201.723 351.637 202.514 351.102 203.443C350.567 204.373 350.258 205.415 350.2 206.485V216.565L346.26 214.255V204.255C346.319 203.188 346.628 202.149 347.163 201.223C347.698 200.297 348.444 199.51 349.34 198.925L434.64 149.765C434.96 149.535 435.337 149.396 435.73 149.364C436.123 149.332 436.517 149.409 436.87 149.585C437.43 149.905 439.99 151.405 440.65 151.715Z" fill="#393939"/>
<path d="M441.65 153.745C441.65 151.745 440.27 151.005 438.57 151.985L353.28 201.145C352.383 201.731 351.636 202.519 351.101 203.447C350.566 204.375 350.257 205.416 350.2 206.485V216.565L441.65 163.865V153.745Z" fill="#393939"/>
<g opacity="0.4">
<path d="M438.53 151.985L353.25 201.145C352.342 201.708 351.592 202.493 351.07 203.425L347.16 201.165C347.668 200.244 348.405 199.469 349.3 198.915L434.63 149.755C434.951 149.524 435.33 149.385 435.725 149.353C436.12 149.321 436.516 149.398 436.87 149.575C437.43 149.915 439.98 151.365 440.63 151.715C440.285 151.581 439.912 151.535 439.546 151.583C439.179 151.63 438.829 151.768 438.53 151.985Z" fill="white"/>
</g>
<path opacity="0.15" d="M346.26 214.265V204.265C346.304 203.175 346.628 202.115 347.2 201.185L351.12 203.435C350.553 204.362 350.236 205.42 350.2 206.505V216.585L346.26 214.265Z" fill="black"/>
<path d="M423.08 165.225C422.526 165.663 422.081 166.223 421.779 166.861C421.477 167.5 421.327 168.199 421.34 168.905C421.34 170.385 422.12 171.135 423.08 170.585C423.634 170.145 424.079 169.583 424.38 168.943C424.682 168.303 424.833 167.603 424.82 166.895C424.82 165.405 424.04 164.665 423.08 165.225Z" fill="#E17120"/>
<path d="M429.35 161.595C428.796 162.035 428.35 162.597 428.049 163.237C427.747 163.877 427.597 164.578 427.61 165.285C427.61 166.765 428.39 167.515 429.35 166.955C429.907 166.518 430.355 165.957 430.657 165.316C430.959 164.676 431.107 163.973 431.09 163.265C431.09 161.785 430.32 161.035 429.35 161.595Z" fill="#E17120"/>
<path d="M435.62 157.965C435.066 158.406 434.621 158.968 434.32 159.607C434.018 160.247 433.867 160.948 433.88 161.655C433.88 163.135 434.66 163.885 435.62 163.325C436.177 162.89 436.625 162.33 436.929 161.692C437.233 161.053 437.384 160.353 437.37 159.645C437.37 158.165 436.59 157.405 435.62 157.965Z" fill="#E17120"/>
<path opacity="0.9" d="M351.33 356.775L350.95 356.555L350 356.025L349.48 355.725L348.67 355.265C348.41 355.105 348.17 354.975 347.99 354.875C347.81 354.775 347.67 354.695 347.61 354.665C347.405 354.561 347.225 354.414 347.08 354.235C346.911 354.052 346.772 353.843 346.67 353.615C346.429 353.106 346.306 352.549 346.31 351.985V214.255L350.25 216.565V354.185C350.266 354.72 350.374 355.248 350.57 355.745C350.701 356.053 350.895 356.329 351.14 356.555C351.184 356.618 351.243 356.669 351.31 356.705C351.313 356.73 351.32 356.753 351.33 356.775Z" fill="#37474F"/>
<path d="M357.77 224.935C357.779 224.736 357.834 224.541 357.93 224.365L360.15 219.775C360.17 219.723 360.205 219.678 360.25 219.645V219.595C360.276 219.576 360.308 219.565 360.34 219.565C360.372 219.565 360.404 219.576 360.43 219.595C360.457 219.625 360.477 219.66 360.489 219.698C360.501 219.736 360.505 219.776 360.5 219.815V221.405C360.518 221.565 360.518 221.726 360.5 221.885C360.458 222.029 360.404 222.17 360.34 222.305L359.17 224.725L360.34 225.805C360.409 225.87 360.463 225.949 360.5 226.035C360.521 226.178 360.521 226.323 360.5 226.465V228.005C360.501 228.113 360.477 228.219 360.43 228.315C360.392 228.402 360.329 228.475 360.25 228.525C360.234 228.533 360.217 228.536 360.2 228.536C360.183 228.536 360.166 228.533 360.15 228.525L357.93 226.525C357.875 226.477 357.832 226.417 357.804 226.349C357.776 226.282 357.764 226.208 357.77 226.135V224.935Z" fill="#393939"/>
<path d="M365.88 213.405C365.919 213.249 365.976 213.098 366.05 212.955C366.119 212.806 366.235 212.683 366.38 212.605L367.21 212.125C367.221 212.114 367.234 212.105 367.249 212.099C367.264 212.093 367.279 212.09 367.295 212.09C367.311 212.09 367.326 212.093 367.341 212.099C367.356 212.105 367.369 212.114 367.38 212.125C367.408 212.154 367.43 212.189 367.444 212.227C367.458 212.265 367.463 212.305 367.46 212.345C367.469 212.402 367.469 212.459 367.46 212.515L363.66 228.715C363.626 228.868 363.572 229.016 363.5 229.155C363.433 229.311 363.317 229.441 363.17 229.525L362.37 229.985C362.346 230.006 362.316 230.017 362.285 230.017C362.254 230.017 362.224 230.006 362.2 229.985C362.144 229.922 362.115 229.84 362.12 229.755C362.116 229.699 362.116 229.642 362.12 229.585L365.88 213.405Z" fill="#393939"/>
<path d="M371.76 218.005C371.756 218.205 371.705 218.4 371.61 218.575L369.39 223.165C369.363 223.216 369.329 223.263 369.29 223.305H369.23C369.206 223.324 369.176 223.334 369.145 223.334C369.114 223.334 369.084 223.324 369.06 223.305C369.008 223.241 368.983 223.158 368.99 223.075V221.535C368.972 221.376 368.972 221.215 368.99 221.055C369.028 220.91 369.082 220.769 369.15 220.635L370.32 218.215L369.15 217.145C369.08 217.078 369.025 216.996 368.99 216.905C368.969 216.763 368.969 216.618 368.99 216.475V214.935C368.99 214.828 369.014 214.722 369.06 214.625C369.098 214.542 369.156 214.47 369.23 214.415H369.29C369.29 214.415 369.35 214.415 369.39 214.415L371.61 216.415C371.664 216.466 371.706 216.528 371.732 216.598C371.758 216.667 371.768 216.742 371.76 216.815V218.005Z" fill="#393939"/>
<path d="M377.92 216.935C377.952 216.911 377.99 216.898 378.03 216.898C378.07 216.898 378.108 216.911 378.14 216.935C378.173 216.974 378.198 217.018 378.213 217.066C378.229 217.114 378.234 217.165 378.23 217.215V218.905C378.23 219.037 378.199 219.167 378.14 219.285C378.097 219.397 378.02 219.491 377.92 219.555L376.92 220.155C376.892 220.183 376.854 220.198 376.815 220.198C376.776 220.198 376.738 220.183 376.71 220.155C376.676 220.12 376.651 220.077 376.635 220.03C376.62 219.984 376.615 219.934 376.62 219.885V218.185C376.621 218.054 376.652 217.924 376.71 217.805C376.752 217.7 376.826 217.609 376.92 217.545L377.92 216.935Z" fill="#393939"/>
<path d="M381.42 214.925C381.451 214.899 381.49 214.885 381.53 214.885C381.57 214.885 381.609 214.899 381.64 214.925C381.673 214.964 381.698 215.008 381.713 215.056C381.729 215.104 381.734 215.155 381.73 215.205V216.895C381.73 217.027 381.699 217.157 381.64 217.275C381.597 217.387 381.52 217.481 381.42 217.545L380.42 218.145C380.389 218.17 380.35 218.183 380.31 218.183C380.27 218.183 380.232 218.17 380.2 218.145C380.167 218.107 380.142 218.063 380.127 218.014C380.111 217.966 380.106 217.916 380.11 217.865V216.165C380.112 216.034 380.143 215.904 380.2 215.785C380.243 215.677 380.32 215.586 380.42 215.525L381.42 214.925Z" fill="#393939"/>
<path d="M384.92 212.905C384.948 212.878 384.986 212.863 385.025 212.863C385.064 212.863 385.102 212.878 385.13 212.905C385.163 212.944 385.188 212.988 385.203 213.036C385.219 213.084 385.224 213.135 385.22 213.185V214.875C385.219 215.01 385.188 215.144 385.13 215.265C385.085 215.369 385.012 215.459 384.92 215.525L383.87 216.125C383.841 216.151 383.804 216.165 383.765 216.165C383.726 216.165 383.689 216.151 383.66 216.125C383.627 216.087 383.602 216.043 383.587 215.994C383.571 215.946 383.566 215.896 383.57 215.845V214.145C383.572 214.014 383.603 213.884 383.66 213.765C383.705 213.661 383.778 213.572 383.87 213.505L384.92 212.905Z" fill="#393939"/>
<path d="M358.71 237.305L409.95 207.725C410.56 207.375 411.05 207.625 411.05 208.275C411.023 208.644 410.91 209.001 410.719 209.318C410.527 209.634 410.264 209.9 409.95 210.095L358.71 239.685C358.1 240.035 357.61 239.785 357.61 239.125C357.637 238.757 357.751 238.4 357.942 238.084C358.133 237.768 358.396 237.501 358.71 237.305Z" fill="#393939"/>
<path d="M414.2 205.275L434.61 193.405C435.22 193.055 435.71 193.305 435.71 193.955C435.683 194.324 435.57 194.681 435.379 194.998C435.187 195.314 434.924 195.58 434.61 195.775L414.2 207.605C413.59 207.955 413.1 207.705 413.1 207.055C413.133 206.694 413.249 206.345 413.44 206.036C413.631 205.727 413.891 205.466 414.2 205.275Z" fill="#393939"/>
<path d="M358.71 246.825L388.6 229.555C389.2 229.205 389.69 229.455 389.69 230.105C389.664 230.473 389.551 230.829 389.362 231.145C389.173 231.462 388.912 231.729 388.6 231.925L358.71 249.195C358.1 249.545 357.61 249.295 357.61 248.645C357.637 248.277 357.75 247.92 357.941 247.603C358.133 247.287 358.396 247.02 358.71 246.825Z" fill="#393939"/>
<path d="M392.84 227.105L405.84 219.625C406.44 219.275 406.94 219.525 406.94 220.175C406.912 220.544 406.798 220.9 406.607 221.216C406.416 221.532 406.153 221.799 405.84 221.995L392.84 229.475C392.24 229.825 391.75 229.575 391.75 228.925C391.776 228.558 391.889 228.202 392.078 227.885C392.267 227.569 392.528 227.302 392.84 227.105Z" fill="#393939"/>
<path opacity="0.6" d="M392.84 227.105L405.84 219.625C406.44 219.275 406.94 219.525 406.94 220.175C406.912 220.544 406.798 220.9 406.607 221.216C406.416 221.532 406.153 221.799 405.84 221.995L392.84 229.475C392.24 229.825 391.75 229.575 391.75 228.925C391.776 228.558 391.889 228.202 392.078 227.885C392.267 227.569 392.528 227.302 392.84 227.105Z" fill="white"/>
<path d="M358.71 341.715L409.95 312.135C410.56 311.785 411.05 312.035 411.05 312.685C411.023 313.054 410.91 313.411 410.719 313.728C410.527 314.044 410.264 314.31 409.95 314.505L358.71 344.095C358.1 344.435 357.61 344.195 357.61 343.535C357.637 343.167 357.751 342.81 357.942 342.494C358.133 342.178 358.396 341.911 358.71 341.715Z" fill="#393939"/>
<path d="M414.2 309.675L434.61 297.845C435.22 297.495 435.71 297.745 435.71 298.405C435.683 298.774 435.569 299.131 435.378 299.447C435.187 299.763 434.924 300.03 434.61 300.225L414.2 312.055C413.59 312.405 413.1 312.155 413.1 311.495C413.127 311.127 413.241 310.77 413.432 310.454C413.623 310.138 413.886 309.871 414.2 309.675Z" fill="#393939"/>
<path d="M414.2 281.255L434.61 269.405C435.22 269.055 435.71 269.305 435.71 269.955C435.683 270.324 435.57 270.681 435.379 270.998C435.187 271.314 434.924 271.58 434.61 271.775L414.2 283.605C413.59 283.955 413.1 283.705 413.1 283.055C413.13 282.69 413.245 282.337 413.436 282.024C413.627 281.712 413.889 281.448 414.2 281.255Z" fill="#393939"/>
<path d="M414.2 290.745L434.61 278.915C435.22 278.565 435.71 278.815 435.71 279.465C435.683 279.834 435.57 280.191 435.379 280.508C435.187 280.824 434.924 281.09 434.61 281.285L414.2 293.115C413.59 293.465 413.1 293.215 413.1 292.565C413.127 292.197 413.24 291.84 413.431 291.523C413.623 291.207 413.886 290.94 414.2 290.745Z" fill="#393939"/>
<path d="M358.71 332.235L409.95 302.645C410.56 302.305 411.05 302.545 411.05 303.205C411.023 303.574 410.909 303.931 410.718 304.247C410.527 304.563 410.264 304.83 409.95 305.025L358.71 334.605C358.1 334.955 357.61 334.705 357.61 334.055C357.637 333.687 357.75 333.33 357.941 333.013C358.133 332.697 358.396 332.43 358.71 332.235Z" fill="#F5F5F5"/>
<path d="M387.53 277.635L417.37 260.405C417.97 260.055 418.46 260.305 418.46 260.965C418.432 261.333 418.319 261.688 418.13 262.004C417.941 262.32 417.681 262.588 417.37 262.785L387.53 280.015C386.93 280.365 386.43 280.115 386.43 279.455C386.457 279.087 386.571 278.73 386.762 278.414C386.953 278.098 387.216 277.831 387.53 277.635Z" fill="#F5F5F5"/>
<path d="M404.72 277.215L434.61 259.945C435.22 259.595 435.71 259.845 435.71 260.495C435.683 260.864 435.57 261.221 435.379 261.538C435.187 261.854 434.924 262.12 434.61 262.315L404.72 279.585C404.12 279.935 403.63 279.685 403.63 279.035C403.656 278.668 403.769 278.312 403.958 277.995C404.147 277.679 404.408 277.412 404.72 277.215Z" fill="#F5F5F5"/>
<path d="M421.62 257.915L434.62 250.435C435.23 250.085 435.72 250.335 435.72 250.995C435.693 251.364 435.579 251.721 435.388 252.037C435.197 252.353 434.934 252.62 434.62 252.815L421.62 260.295C421.01 260.635 420.52 260.395 420.52 259.735C420.547 259.367 420.661 259.01 420.852 258.694C421.043 258.378 421.306 258.111 421.62 257.915Z" fill="#F5F5F5"/>
<path opacity="0.6" d="M358.71 284.775L368.85 278.915C369.45 278.565 369.94 278.815 369.94 279.465C369.914 279.833 369.801 280.189 369.612 280.505C369.423 280.822 369.162 281.089 368.85 281.285L358.71 287.145C358.1 287.495 357.61 287.245 357.61 286.595C357.637 286.227 357.75 285.87 357.941 285.553C358.133 285.237 358.396 284.97 358.71 284.775Z" fill="white"/>
<path d="M375.15 256.295L426.39 226.705C427 226.355 427.49 226.605 427.49 227.265C427.463 227.634 427.349 227.991 427.158 228.307C426.967 228.623 426.704 228.89 426.39 229.085L375.15 258.665C374.54 259.015 374.05 258.765 374.05 258.115C374.077 257.747 374.19 257.39 374.381 257.073C374.573 256.757 374.836 256.49 375.15 256.295Z" fill="#E0E0E0"/>
<path d="M375.15 265.785L399.68 251.635C400.28 251.285 400.77 251.535 400.77 252.195C400.744 252.562 400.631 252.917 400.442 253.231C400.253 253.546 399.991 253.811 399.68 254.005L375.15 268.165C374.54 268.505 374.05 268.265 374.05 267.605C374.077 267.237 374.191 266.88 374.382 266.564C374.573 266.248 374.836 265.981 375.15 265.785Z" fill="#E0E0E0"/>
<path opacity="0.6" d="M358.71 256.295L368.85 250.405C369.45 250.055 369.94 250.305 369.94 250.965C369.912 251.333 369.799 251.688 369.61 252.004C369.421 252.32 369.161 252.588 368.85 252.785L358.71 258.645C358.1 258.995 357.61 258.745 357.61 258.085C357.642 257.722 357.758 257.371 357.949 257.061C358.14 256.75 358.4 256.488 358.71 256.295Z" fill="white"/>
<path d="M358.71 265.795L368.85 259.925C369.45 259.575 369.94 259.825 369.94 260.485C369.912 260.853 369.799 261.208 369.61 261.524C369.421 261.84 369.161 262.108 368.85 262.305L358.71 268.165C358.1 268.515 357.61 268.265 357.61 267.605C357.637 267.238 357.75 266.882 357.941 266.568C358.133 266.253 358.396 265.988 358.71 265.795Z" fill="#393939"/>
<path opacity="0.6" d="M358.71 265.795L368.85 259.925C369.45 259.575 369.94 259.825 369.94 260.485C369.912 260.853 369.799 261.208 369.61 261.524C369.421 261.84 369.161 262.108 368.85 262.305L358.71 268.165C358.1 268.515 357.61 268.265 357.61 267.605C357.637 267.238 357.75 266.882 357.941 266.568C358.133 266.253 358.396 265.988 358.71 265.795Z" fill="white"/>
<path d="M358.71 275.285L368.85 269.405C369.45 269.055 369.94 269.295 369.94 269.955C369.914 270.323 369.801 270.679 369.612 270.995C369.423 271.312 369.162 271.579 368.85 271.775L358.71 277.635C358.1 277.985 357.61 277.735 357.61 277.085C357.64 276.72 357.755 276.367 357.946 276.054C358.137 275.742 358.399 275.478 358.71 275.285Z" fill="#393939"/>
<path opacity="0.6" d="M358.71 275.285L368.85 269.405C369.45 269.055 369.94 269.295 369.94 269.955C369.914 270.323 369.801 270.679 369.612 270.995C369.423 271.312 369.162 271.579 368.85 271.775L358.71 277.635C358.1 277.985 357.61 277.735 357.61 277.085C357.64 276.72 357.755 276.367 357.946 276.054C358.137 275.742 358.399 275.478 358.71 275.285Z" fill="white"/>
<path d="M375.15 246.805L405.04 229.535C405.64 229.185 406.13 229.435 406.13 230.095C406.102 230.463 405.989 230.818 405.8 231.134C405.611 231.45 405.351 231.718 405.04 231.915L375.15 249.175C374.54 249.525 374.05 249.285 374.05 248.625C374.077 248.257 374.191 247.9 374.382 247.584C374.573 247.268 374.836 247.001 375.15 246.805Z" fill="#393939"/>
<path d="M409.28 227.085L422.28 219.605C422.89 219.255 423.38 219.505 423.38 220.155C423.353 220.524 423.24 220.881 423.049 221.198C422.858 221.514 422.594 221.78 422.28 221.975L409.28 229.455C408.68 229.805 408.19 229.555 408.19 228.905C408.216 228.538 408.329 228.182 408.518 227.865C408.707 227.549 408.968 227.282 409.28 227.085Z" fill="#393939"/>
<path opacity="0.6" d="M409.28 227.085L422.28 219.605C422.89 219.255 423.38 219.505 423.38 220.155C423.353 220.524 423.24 220.881 423.049 221.198C422.858 221.514 422.594 221.78 422.28 221.975L409.28 229.455C408.68 229.805 408.19 229.555 408.19 228.905C408.216 228.538 408.329 228.182 408.518 227.865C408.707 227.549 408.968 227.282 409.28 227.085Z" fill="white"/>
<path opacity="0.6" d="M375.15 246.805L405.04 229.535C405.64 229.185 406.13 229.435 406.13 230.095C406.102 230.463 405.989 230.818 405.8 231.134C405.611 231.45 405.351 231.718 405.04 231.915L375.15 249.175C374.54 249.525 374.05 249.285 374.05 248.625C374.077 248.257 374.191 247.9 374.382 247.584C374.573 247.268 374.836 247.001 375.15 246.805Z" fill="white"/>
<path d="M358.71 256.295L368.85 250.405C369.45 250.055 369.94 250.305 369.94 250.965C369.912 251.333 369.799 251.688 369.61 252.004C369.421 252.32 369.161 252.588 368.85 252.785L358.71 258.645C358.1 258.995 357.61 258.745 357.61 258.085C357.642 257.722 357.758 257.371 357.949 257.061C358.14 256.75 358.4 256.488 358.71 256.295Z" fill="#393939"/>
</svg>
