<svg viewBox="0 0 755.962 375.984" xmlns="http://www.w3.org/2000/svg"><path d="M111.495.75h551.972v319.484H111.495z" fill="#b33600" class="fill-ff6498"></path><path d="M405.067 320.234v32.183a22.817 22.817 0 0 0 22.817 22.817h-76a22.817 22.817 0 0 1-22.817-22.817v-32.183z" fill="#d6d6d6" class="fill-d6d6d6"></path><path d="M391.33 320.234v32.183a22.817 22.817 0 0 0 22.817 22.817h-76a22.817 22.817 0 0 1-22.817-22.817v-32.183z" fill="#b33600" class="fill-ff6498"></path><path d="M92.495.75h551.972v319.484H92.495z" fill="#262626" class="fill-000000"></path><g fill="none" stroke="#262626" stroke-linecap="round" stroke-linejoin="round" stroke-width="1.5" class="stroke-000000"><path d="M405.067 320.234v32.183a22.817 22.817 0 0 0 22.817 22.817M352.647 375.234a22.817 22.817 0 0 1-22.817-22.817v-32.183M644.467.75v319.484H92.495"></path></g><g fill="#b33600" class="fill-ff6498"><path d="M140.981 234.254h42.667v4.333H140.98zM140.981 247.254h42.667v4.333H140.98zM140.981 260.254h42.667v4.333H140.98zM140.981 273.254h42.667v4.333H140.98z"></path></g><path d="M.75 375.234h754.462" fill="none" stroke="#262626" stroke-linecap="round" stroke-linejoin="round" stroke-width="1.5" class="stroke-000000"></path></svg>